<?xml version="1.0" encoding="UTF-8"?>
<!-- Generator: visioncortex VTracer 0.6.4 -->
<svg version="1.1" xmlns="http://www.w3.org/2000/svg" width="1254" height="1254">
<path d="M0 0 C413.82 0 827.64 0 1254 0 C1254 413.82 1254 827.64 1254 1254 C840.18 1254 426.36 1254 0 1254 C0 840.18 0 426.36 0 0 Z " fill="#FDFDFD" transform="translate(0,0)"/>
<path d="M0 0 C6.5 1.77 12.61 4.03 18.8 6.68 C22.16 8.07 25.56 9.3 29 10.5 C33.34 12.02 37.59 13.63 41.81 15.44 C46.71 17.52 51.66 19.32 56.69 21.06 C61.89 22.87 66.97 24.75 71.98 27.07 C78.83 30.22 85.9 32.66 93.07 35 C96.56 36.19 99.96 37.54 103.37 38.93 C106.4 40.16 109.45 41.33 112.5 42.5 C116.28 43.95 120.06 45.42 123.81 46.94 C128.18 48.7 132.59 50.35 137 52 C143.04 54.25 149.03 56.57 155 59 C156.81 59.73 158.62 60.46 160.44 61.19 C161.24 61.51 162.04 61.83 162.87 62.17 C164.56 62.83 166.28 63.43 168 64 C168 64.66 168 65.32 168 66 C169.39 66.09 169.39 66.09 170.81 66.19 C174.2 66.67 176.9 67.77 179.98 69.23 C186.06 72.05 192.22 74.58 198.44 77.06 C199.48 77.48 200.52 77.9 201.6 78.34 C207.8 80.82 214.05 83.05 220.4 85.12 C223.31 86.11 226.1 87.25 228.88 88.56 C229.72 88.96 230.56 89.35 231.43 89.75 C232.7 90.37 232.7 90.37 234 91 C235 91.44 236.01 91.88 237.04 92.34 C240.36 94.2 242.12 96.05 244.5 99 C244.92 99.52 245.34 100.03 245.77 100.56 C250.79 106.85 255.48 113.38 260.23 119.87 C270.15 133.42 280.49 146.68 290.82 159.92 C293.63 163.52 296.41 167.13 299.19 170.75 C307 180.93 314.96 190.99 323 201 C325 203.5 327.01 206.01 329.01 208.52 C330.3 210.13 331.6 211.75 332.89 213.36 C336.23 217.51 339.54 221.68 342.82 225.88 C347.34 231.66 351.92 237.38 356.56 243.06 C361.4 248.98 366.1 254.98 370.74 261.05 C372.79 263.73 374.88 266.37 377 269 C380.42 273.25 383.76 277.57 387.08 281.9 C390.65 286.56 394.27 291.17 397.9 295.77 C400.94 299.64 403.95 303.53 406.94 307.44 C411.04 312.79 415.23 318.07 419.46 323.33 C423.38 328.22 427.26 333.13 431.12 338.07 C433.85 341.54 436.6 345 439.38 348.44 C442.4 352.2 445.24 356.04 448 360 C450.92 358.93 452.78 358.22 455 356 C455.36 352.97 455.36 352.97 455.38 349.28 C455.4 348.19 455.4 348.19 455.43 347.07 C455.48 344.55 455.52 342.02 455.56 339.5 C455.6 337.68 455.63 335.87 455.67 334.05 C456.32 299.7 456.62 265.35 457 231 C450.24 230.84 443.49 230.77 436.72 230.77 C434.43 230.76 432.13 230.72 429.84 230.67 C414.92 229.83 414.92 229.83 402.13 236.23 C399.87 238.7 397.93 241.26 396 244 C395.03 245.03 394.04 246.04 393 247 C389.67 245.89 388.99 245.07 386.81 242.44 C384.32 239.49 381.76 236.7 379 234 C375.75 230.8 372.75 227.46 369.78 224 C367.93 221.92 365.99 219.96 364 218 C360.83 214.87 357.87 211.62 354.96 208.25 C348.8 201.19 342.35 194.38 336 187.5 C319.62 169.76 319.62 169.76 313.81 163.06 C311.57 160.51 309.29 158.01 307 155.5 C303.53 151.7 300.11 147.87 296.74 143.98 C295.44 142.5 294.12 141.04 292.79 139.58 C292.06 138.77 291.32 137.96 290.56 137.12 C289.88 136.39 289.2 135.65 288.5 134.88 C287 133 287 133 287 131 C343.76 131 400.52 131 459 131 C459 115.16 459 99.32 459 83 C459.58 59.21 459.58 59.21 460 48 C464.01 49.88 467.12 52.48 470.44 55.38 C471.36 56.17 471.36 56.17 472.29 56.98 C477.07 61.14 481.76 65.39 486.38 69.73 C489.18 72.34 492.01 74.89 494.9 77.4 C498.94 80.92 502.85 84.57 506.75 88.25 C508.15 89.57 509.56 90.89 510.96 92.21 C511.65 92.85 512.33 93.5 513.04 94.16 C520.34 101.01 527.73 107.66 535.54 113.95 C537.71 115.76 539.71 117.61 541.69 119.62 C542.2 120.14 542.71 120.66 543.23 121.19 C544.4 122.39 545.55 123.6 546.67 124.83 C551.31 129.47 554.68 130.81 561.21 130.94 C562.24 130.92 563.28 130.91 564.35 130.89 C565.46 130.9 566.57 130.91 567.71 130.93 C571.38 130.96 575.06 130.94 578.73 130.92 C581.34 130.93 583.94 130.94 586.55 130.96 C591.99 131 597.44 131.01 602.88 131 C610.54 130.99 618.2 131.04 625.86 131.1 C639.69 131.21 653.53 131.26 667.36 131.3 C673.51 131.32 679.66 131.35 685.81 131.37 C697.94 131.42 710.06 131.46 722.19 131.5 C733.92 131.54 745.65 131.58 757.37 131.63 C758.11 131.63 758.84 131.63 759.59 131.64 C763.26 131.65 766.94 131.66 770.61 131.68 C800.74 131.79 830.87 131.9 861 132 C860.05 133.12 859.1 134.24 858.15 135.36 C857.35 136.3 857.35 136.3 856.54 137.25 C854.63 139.42 852.56 141.3 850.38 143.19 C846.39 146.7 842.6 150.34 838.88 154.12 C835.03 158.02 831.1 161.74 826.93 165.29 C823.88 167.99 821.08 170.91 818.23 173.8 C815.55 176.44 812.75 178.88 809.9 181.32 C807.41 183.52 805.11 185.88 802.78 188.25 C800.93 190.06 799.02 191.75 797.06 193.44 C794.25 195.86 791.6 198.36 789 201 C785.8 204.25 782.46 207.25 779 210.22 C776.92 212.07 774.96 214.01 773 216 C769.8 219.25 766.46 222.25 763 225.22 C760.92 227.07 758.96 229.01 757 231 C753.8 234.25 750.46 237.25 747 240.22 C744.92 242.07 742.96 244.01 741 246 C738.44 248.6 735.83 251.06 733.06 253.44 C730.07 256.01 727.27 258.69 724.5 261.5 C721.14 264.91 717.66 268.07 714.03 271.19 C711.76 273.21 709.63 275.34 707.5 277.5 C704.14 280.91 700.66 284.07 697.03 287.19 C694.04 289.86 691.26 292.72 688.47 295.59 C685.77 298.22 682.96 300.67 680.11 303.14 C676.71 306.14 673.42 309.26 670.12 312.38 C665.01 317.2 659.85 321.96 654.61 326.64 C650.61 330.26 646.68 333.95 642.74 337.64 C638.67 341.44 634.6 345.23 630.5 349 C625.17 353.91 619.87 358.85 614.58 363.79 C610.59 367.52 606.58 371.24 602.56 374.94 C596.35 380.66 590.19 386.43 584.04 392.21 C580.2 395.81 576.35 399.41 572.5 403 C567.35 407.81 562.2 412.62 557.06 417.44 C556.4 418.06 555.74 418.68 555.06 419.32 C551.66 422.51 548.26 425.7 544.86 428.89 C538.63 434.74 532.4 440.58 526.12 446.38 C525.18 447.25 524.23 448.12 523.26 449.02 C521 451 521 451 519 452 C520.7 456.14 523.64 459.24 526.56 462.56 C527.66 463.82 528.75 465.09 529.85 466.35 C530.39 466.97 530.93 467.59 531.48 468.23 C533.53 470.62 535.52 473.05 537.5 475.5 C544.05 483.56 550.85 491.4 557.69 499.22 C558.31 499.93 558.93 500.64 559.57 501.37 C560.04 501.91 560.52 502.45 561 503 C560.99 502.15 560.99 501.31 560.98 500.43 C560.94 492.43 560.94 484.43 560.98 476.43 C561 472.31 561 468.2 560.97 464.08 C560.94 460.11 560.95 456.13 560.99 452.16 C561 450.65 560.99 449.14 560.97 447.62 C560.82 435.82 560.82 435.82 563.71 431.36 C565.7 429.34 567.71 427.67 570 426 C571.34 424.83 572.68 423.65 574.01 422.46 C574.67 421.89 575.33 421.32 576.01 420.74 C579.38 417.79 582.62 414.7 585.88 411.62 C591.06 406.75 596.27 401.91 601.58 397.17 C604.41 394.64 607.2 392.07 610 389.5 C615.3 384.63 620.64 379.81 626 375 C626.85 374.24 627.69 373.47 628.56 372.69 C634.72 367.13 640.91 361.63 647.22 356.25 C653.75 350.69 660.19 345.06 666.52 339.27 C668.87 337.12 671.24 334.99 673.62 332.88 C674.26 332.32 674.89 331.76 675.54 331.18 C677 330 677 330 678 330 C678.17 350.87 678.34 371.75 678.5 392.62 C678.51 393.4 678.51 394.18 678.52 394.98 C678.86 439.19 679.1 483.41 679.06 527.62 C679.06 529.28 679.06 529.28 679.06 530.96 C679.05 543.98 679.03 556.99 679 570 C682.96 570 686.92 570 691 570 C690.99 568.12 690.98 566.25 690.96 564.32 C690.9 547.85 691.17 531.45 692 515 C696.02 517.96 699.01 521.29 702 525.25 C702.97 526.51 703.94 527.77 704.91 529.02 C705.41 529.68 705.92 530.33 706.44 531 C709.05 534.34 711.75 537.6 714.44 540.88 C720.87 548.74 726.97 556.82 733 565 C733.55 565.74 734.1 566.48 734.66 567.25 C737.59 571.21 740.51 575.17 743.42 579.14 C745.8 582.37 748.19 585.6 750.58 588.83 C756.66 597.04 762.66 605.29 768.53 613.65 C772.16 618.83 775.85 623.95 779.56 629.06 C784.54 635.93 789.4 642.86 794.18 649.86 C796.32 653.01 798.48 656.16 800.65 659.3 C807.34 669 813.96 678.76 820.56 688.53 C821.81 690.38 823.06 692.23 824.31 694.07 C830.96 703.89 837.55 713.73 843.91 723.73 C844.43 724.54 844.94 725.34 845.47 726.17 C845.94 726.91 846.41 727.65 846.89 728.41 C847.3 729.06 847.71 729.71 848.13 730.37 C849 732 849 732 849 734 C842.29 731.45 836 727.98 829.62 724.69 C828.58 724.15 828.58 724.15 827.52 723.6 C817.78 718.57 808.18 713.36 798.68 707.89 C789.52 702.65 780.15 697.82 770.76 693.02 C760.83 687.95 760.83 687.95 756.89 685.66 C754.04 684.02 751.3 682.94 748.22 681.84 C745.66 680.87 743.18 679.76 740.69 678.62 C739.27 677.98 739.27 677.98 737.82 677.32 C736.05 676.49 734.29 675.64 732.55 674.74 C715.5 666.24 698.09 665.76 679 665 C679 706.58 679 748.16 679 791 C674.98 788.99 671.97 786.56 668.62 783.62 C667.37 782.54 666.11 781.45 664.86 780.36 C664.22 779.8 663.58 779.24 662.92 778.67 C659.94 776.07 656.94 773.51 653.94 770.94 C653.07 770.19 653.07 770.19 652.18 769.43 C646.15 764.26 640.08 759.13 634 754 C625.56 746.87 617.15 739.71 608.77 732.52 C606.43 730.51 604.09 728.5 601.75 726.5 C600 725 598.25 723.5 596.5 722 C594.18 720.01 591.86 718.02 589.54 716.04 C566.88 696.65 566.88 696.65 558.75 689.25 C554.6 685.48 550.3 681.93 545.89 678.47 C543 676 543 676 540.76 673.41 C536 668.09 532.43 665.5 525.36 664.89 C520.85 664.71 516.36 664.76 511.84 664.85 C509.81 664.85 507.77 664.85 505.73 664.84 C500.19 664.83 494.66 664.89 489.12 664.95 C483.23 665.01 477.34 665.01 471.45 665.02 C460.2 665.05 448.95 665.13 437.7 665.22 C425.24 665.33 412.79 665.37 400.34 665.41 C377.43 665.49 354.52 665.64 331.61 665.83 C319.25 665.94 306.88 666.03 294.52 666.08 C286.33 666.12 278.15 666.17 269.96 666.23 C265.29 666.27 260.61 666.3 255.94 666.31 C251.66 666.32 247.38 666.35 243.1 666.4 C241.57 666.41 240.04 666.41 238.51 666.41 C227.91 666.41 218.21 667.92 207.93 670.51 C205.19 671.2 202.44 671.85 199.7 672.49 C197.84 672.95 195.98 673.41 194.12 673.88 C192.62 674.25 192.62 674.25 191.08 674.64 C182.95 676.7 174.91 679.03 166.9 681.51 C163.1 682.68 159.29 683.78 155.47 684.86 C148.04 686.98 140.63 689.18 133.23 691.41 C131.77 691.85 130.32 692.29 128.86 692.72 C126.71 693.36 124.56 694.01 122.41 694.66 C121.15 695.04 119.9 695.42 118.6 695.8 C114.96 697.01 111.51 698.47 108 700 C104.07 701.44 100.1 702.74 96.12 704.06 C95.09 704.41 94.05 704.77 92.98 705.13 C87.03 707.11 81.15 708.76 75 710 C79.69 704.37 84.68 699.16 89.88 694 C91.02 692.85 91.02 692.85 92.19 691.67 C96.43 687.44 100.75 683.4 105.29 679.49 C107.29 677.75 109.16 675.91 111 674 C114.22 670.73 117.59 667.71 121.07 664.71 C122.95 663.04 124.73 661.3 126.5 659.5 C129.46 656.49 132.57 653.71 135.77 650.95 C138.38 648.67 140.94 646.34 143.5 644 C146.62 641.15 149.75 638.33 152.94 635.56 C156.89 632.13 160.73 628.59 164.58 625.04 C167.33 622.51 170.11 620.01 172.94 617.56 C182.39 609.35 191.44 600.66 200.56 592.07 C207.06 585.93 213.6 579.83 220.14 573.73 C222.05 571.96 223.95 570.18 225.85 568.4 C233.52 561.22 241.24 554.09 249 547 C251 545.17 253 543.33 255 541.5 C256 540.58 257 539.67 258 538.75 C258.5 538.3 258.99 537.84 259.5 537.38 C265 532.33 270.5 527.29 276 522.25 C276.5 521.8 276.99 521.34 277.5 520.87 C278.5 519.96 279.49 519.05 280.49 518.13 C283.04 515.8 285.59 513.45 288.14 511.11 C296.76 503.18 296.76 503.18 300.94 499.56 C305.07 495.98 309.08 492.26 313.09 488.54 C316.3 485.56 319.54 482.61 322.81 479.69 C327.12 475.83 331.35 471.89 335.56 467.94 C336.23 467.31 336.91 466.68 337.6 466.03 C341.3 462.55 344.99 459.06 348.67 455.55 C349.43 454.82 350.2 454.09 350.99 453.34 C352.47 451.93 353.94 450.52 355.42 449.1 C356.09 448.46 356.76 447.83 357.45 447.17 C358.04 446.6 358.63 446.04 359.24 445.46 C361.06 443.95 362.85 442.97 365 442 C357.67 432.11 350.17 422.38 342.44 412.8 C327.36 394.01 312.74 374.84 298.12 355.69 C297.09 354.33 297.09 354.33 296.03 352.94 C292.43 348.21 288.85 343.47 285.32 338.69 C280.13 331.69 274.72 324.92 269.15 318.22 C265.46 313.79 261.85 309.3 258.31 304.75 C254.37 299.69 250.3 294.77 246.13 289.9 C242.32 285.42 238.68 280.83 235.08 276.19 C231.13 271.11 226.99 266.21 222.8 261.33 C221 259 221 259 221 257 C220.34 257 219.68 257 219 257 C219.11 264.83 219.22 272.65 219.34 280.48 C219.39 284.12 219.45 287.76 219.5 291.39 C219.55 294.93 219.6 298.47 219.65 302.01 C219.68 303.96 219.71 305.9 219.73 307.84 C219.8 312.23 219.9 316.61 220 321 C220.02 322 220.04 323 220.06 324.03 C220.39 338.53 221.08 352.96 222.2 367.43 C224.07 391.37 225.35 415.31 226.12 439.31 C226.18 440.86 226.18 440.86 226.23 442.44 C229.19 535.39 229.19 535.39 197.92 569.84 C182.73 585.69 164.86 599.58 146.14 611.02 C140.95 614.21 136.47 617.87 132 622 C131.34 622.61 130.68 623.22 129.99 623.85 C128.15 625.56 126.33 627.28 124.5 629 C111.21 641.45 111.21 641.45 105.38 645.6 C104.75 646.05 104.12 646.5 103.46 646.96 C102.98 647.3 102.5 647.65 102 648 C102 646.33 102 646.33 102 644.63 C102.03 595.61 102.04 546.59 102.01 497.57 C102.01 496.83 102.01 496.08 102.01 495.32 C102 479.2 101.99 463.07 101.98 446.95 C101.97 439.04 101.96 431.13 101.96 423.23 C101.96 422.44 101.96 421.65 101.96 420.84 C101.94 395.33 101.94 369.82 101.96 344.31 C101.97 318.09 101.97 291.88 101.93 265.67 C101.93 261.97 101.92 258.27 101.92 254.56 C101.91 253.47 101.91 253.47 101.91 252.36 C101.9 240.62 101.91 228.89 101.93 217.16 C101.95 205.37 101.94 193.57 101.91 181.78 C101.89 175.39 101.89 169 101.91 162.61 C101.93 156.76 101.93 150.92 101.89 145.07 C101.88 142.95 101.89 140.83 101.91 138.71 C101.93 135.84 101.91 132.97 101.88 130.09 C101.89 129.26 101.91 128.44 101.93 127.59 C101.82 122.83 100.99 120.51 97.59 117.1 C96.4 116.06 95.2 115.03 94 114 C92.53 112.28 91.09 110.53 89.69 108.75 C86.57 104.88 83.37 101.15 80 97.5 C75.58 92.69 71.43 87.72 67.33 82.64 C59.56 73.04 51.67 63.56 43.55 54.25 C38.92 48.93 34.44 43.49 30 38 C25.2 32.1 20.36 26.23 15.44 20.44 C2.21 4.85 2.21 4.85 0 0 Z " fill="#070606" transform="translate(195,263)"/>
<path d="M0 0 C48.96 -0.02 97.92 -0.04 146.88 -0.05 C152.72 -0.05 158.56 -0.05 164.4 -0.05 C165.56 -0.06 166.72 -0.06 167.92 -0.06 C186.5 -0.06 205.07 -0.07 223.65 -0.08 C242.85 -0.09 262.05 -0.09 281.26 -0.09 C291.98 -0.1 302.71 -0.1 313.43 -0.11 C372.96 -0.15 432.48 0.25 492 1 C492 1.66 492 2.32 492 3 C490.52 4.47 490.52 4.47 488.48 6.18 C484.3 9.73 480.3 13.42 476.31 17.19 C471.4 21.82 466.47 26.43 461.5 31 C455.31 36.69 449.18 42.44 443.05 48.2 C434.04 56.66 425 65.09 415.91 73.46 C411.76 77.29 407.63 81.14 403.5 85 C398.32 89.84 393.13 94.66 387.91 99.46 C383.12 103.88 378.35 108.34 373.58 112.79 C369.59 116.52 365.58 120.24 361.56 123.94 C354.71 130.25 347.92 136.62 341.14 142.99 C338.91 145.09 336.68 147.18 334.45 149.27 C332.95 150.68 331.44 152.09 329.94 153.5 C328.9 154.47 328.9 154.47 327.85 155.46 C324.6 158.51 321.39 161.59 318.25 164.75 C315.93 167.09 313.58 169.32 311.06 171.44 C307.62 174.41 304.41 177.54 301.25 180.81 C298.62 183.37 295.87 185.75 293.11 188.15 C289.83 191.03 286.67 194.01 283.5 197 C282.1 198.32 280.69 199.64 279.29 200.96 C278.58 201.63 277.86 202.3 277.13 202.99 C273.74 206.19 270.34 209.37 266.94 212.56 C265.95 213.49 265.95 213.49 264.93 214.44 C258.59 220.39 252.23 226.32 245.87 232.26 C243.97 234.03 242.08 235.8 240.18 237.57 C233.8 243.53 227.41 249.48 220.98 255.39 C215.94 260.04 210.94 264.74 205.94 269.44 C201.83 273.29 197.71 277.12 193.56 280.94 C188.57 285.53 183.62 290.16 178.69 294.81 C177.97 295.49 177.26 296.16 176.52 296.85 C175.07 298.22 173.62 299.59 172.17 300.95 C154.66 317.46 154.66 317.46 146.62 324.63 C143.21 327.71 139.86 330.86 136.5 334 C131.53 338.65 126.53 343.26 121.46 347.79 C118.62 350.34 115.81 352.92 113 355.5 C106.44 361.53 99.85 367.53 93.12 373.38 C89.21 376.79 85.38 380.3 81.55 383.82 C78.47 386.65 75.37 389.46 72.25 392.25 C62.85 400.7 53.57 409.31 44.71 418.32 C42.93 420.07 41.08 421.69 39.19 423.31 C33.9 427.97 28.98 433.02 24 438 C142.47 438.33 260.94 438.66 383 439 C383 430.42 383 421.84 383 413 C386.16 416.16 388.67 418.68 391.2 422.19 C391.76 422.96 392.33 423.74 392.91 424.53 C393.79 425.75 393.79 425.75 394.69 427 C395.94 428.72 397.19 430.43 398.44 432.15 C399.05 432.98 399.66 433.82 400.29 434.67 C402.52 437.7 404.81 440.66 407.12 443.62 C411.41 449.16 415.46 454.84 419.47 460.57 C422.71 465.2 426.01 469.77 429.38 474.31 C435.47 482.57 441.33 490.98 447.19 499.4 C449.59 502.85 452 506.28 454.41 509.72 C457.28 513.81 460.14 517.9 463 522 C463.55 522.79 464.1 523.57 464.67 524.38 C466.22 526.61 467.77 528.83 469.31 531.06 C469.77 531.72 470.24 532.38 470.71 533.07 C472.53 535.7 473.98 537.95 475 541 C470.05 539.16 465.4 536.75 460.69 534.38 C459.85 533.95 459.02 533.53 458.15 533.1 C456.1 532.07 454.05 531.04 452 530 C452 529.34 452 528.68 452 528 C451.42 527.86 450.85 527.71 450.25 527.56 C448.17 527.04 446.08 526.52 444 526 C444 525.34 444 524.68 444 524 C443.43 523.87 442.87 523.74 442.29 523.61 C434.92 521.65 428.34 518.15 421.73 514.45 C418.33 512.65 414.86 511.23 411.27 509.87 C409.32 509.12 407.4 508.29 405.5 507.44 C391.01 501.49 376.98 500.71 361.53 500.74 C359.55 500.74 357.57 500.73 355.59 500.73 C350.16 500.72 344.73 500.72 339.31 500.72 C333.45 500.73 327.59 500.72 321.73 500.71 C310.25 500.7 298.78 500.7 287.31 500.7 C277.98 500.7 268.65 500.7 259.32 500.69 C257.98 500.69 256.63 500.69 255.29 500.69 C253.27 500.69 251.25 500.69 249.23 500.69 C230.43 500.68 211.63 500.68 192.83 500.68 C191.77 500.68 191.77 500.68 190.69 500.68 C187.1 500.68 183.51 500.68 179.92 500.68 C178.85 500.68 178.85 500.68 177.76 500.68 C176.32 500.68 174.88 500.68 173.44 500.68 C151.02 500.69 128.6 500.68 106.18 500.66 C80.97 500.64 55.77 500.63 30.56 500.64 C27.87 500.64 25.18 500.64 22.48 500.64 C21.82 500.64 21.16 500.64 20.48 500.64 C10.5 500.64 0.52 500.63 -9.46 500.62 C-20.82 500.61 -32.18 500.61 -43.53 500.62 C-49.32 500.63 -55.11 500.63 -60.9 500.62 C-66.21 500.6 -71.52 500.61 -76.83 500.62 C-78.75 500.62 -80.66 500.62 -82.57 500.61 C-98.54 500.55 -113.25 502.51 -128.56 507.25 C-130.61 507.87 -132.67 508.48 -134.72 509.1 C-135.75 509.42 -136.78 509.73 -137.85 510.05 C-141.01 511 -144.17 511.92 -147.34 512.84 C-157.39 515.73 -167.35 518.66 -177.17 522.25 C-180.11 523.03 -181.19 522.84 -184 522 C-170.13 509.05 -170.13 509.05 -164.05 503.8 C-161.33 501.41 -158.67 498.96 -156 496.5 C-152.09 492.9 -148.14 489.36 -144.12 485.88 C-140.4 482.59 -136.77 479.21 -133.12 475.84 C-130.83 473.74 -128.49 471.68 -126.14 469.64 C-121.93 465.97 -117.86 462.16 -113.81 458.31 C-108.63 453.41 -103.43 448.52 -98.19 443.69 C-97.67 443.21 -97.15 442.73 -96.62 442.24 C-94.01 439.84 -91.4 437.45 -88.78 435.06 C-84 430.71 -79.27 426.34 -74.75 421.72 C-72.99 419.99 -71.17 418.37 -69.3 416.77 C-65.1 413.11 -61.04 409.33 -57 405.5 C-55.51 404.09 -54.01 402.68 -52.52 401.27 C-51.76 400.56 -51.01 399.85 -50.24 399.12 C-39.89 389.34 -29.47 379.64 -19 370 C-11.5 363.1 -4.03 356.17 3.42 349.21 C7.39 345.5 11.38 341.8 15.38 338.12 C22.58 331.49 29.71 324.76 36.84 318.03 C49.11 306.48 61.44 295 73.88 283.62 C80.3 277.75 86.66 271.81 93.01 265.86 C95.05 263.96 97.09 262.06 99.12 260.16 C105.17 254.52 111.19 248.88 117 243 C120.51 239.45 124.11 236.11 127.91 232.88 C131.04 230.07 133.97 227.05 136.92 224.06 C140.21 220.74 143.62 217.64 147.17 214.61 C149.03 212.97 150.77 211.27 152.5 209.5 C154.81 207.15 157.18 204.95 159.69 202.81 C163.3 199.7 166.65 196.39 170 193 C173.83 189.12 177.72 185.44 181.88 181.91 C185.25 178.88 188.39 175.63 191.57 172.41 C194.93 169.03 198.38 165.86 202.01 162.77 C205.34 159.8 208.43 156.58 211.56 153.41 C214.25 150.75 217.07 148.3 219.94 145.84 C222.39 143.65 224.69 141.34 227 139 C230.52 135.44 234.13 132.1 237.94 128.84 C240.39 126.65 242.69 124.34 245 122 C248.52 118.44 252.13 115.1 255.94 111.84 C259.21 108.92 262.25 105.77 265.31 102.62 C267.42 100.57 269.55 98.64 271.78 96.72 C276.24 92.85 280.37 88.71 284.5 84.5 C289.3 79.61 294.15 74.88 299.35 70.43 C300.61 69.33 301.82 68.18 303 67 C274.22 66.82 245.44 66.68 216.65 66.59 C213.25 66.58 209.85 66.57 206.45 66.56 C205.78 66.56 205.1 66.56 204.4 66.55 C193.45 66.52 182.5 66.46 171.55 66.38 C160.31 66.31 149.06 66.26 137.82 66.25 C131.51 66.24 125.2 66.21 118.89 66.15 C112.94 66.1 107 66.08 101.06 66.1 C98.88 66.09 96.7 66.08 94.52 66.05 C83.28 65.48 83.28 65.48 72.89 68.84 C70.9 70.8 69.38 72.59 68 75 C63.06 71.01 58.86 66.74 54.66 61.98 C51.46 58.39 48.17 54.88 44.88 51.38 C40.8 47.03 36.78 42.67 32.9 38.15 C30.16 35.05 27.33 32.03 24.5 29 C20.54 24.75 16.62 20.49 12.83 16.08 C11.29 14.33 9.73 12.62 8.14 10.92 C7.63 10.38 7.12 9.83 6.6 9.27 C5.59 8.19 4.57 7.11 3.55 6.03 C0 2.22 0 2.22 0 0 Z " fill="#FCFCFC" transform="translate(520,411)"/>
<path d="M0 0 C0.59 0.26 1.18 0.51 1.78 0.78 C10.18 4.36 18.71 7.55 27.28 10.7 C32.64 12.69 37.9 14.78 43.1 17.14 C45.36 18.16 47.64 19.09 49.94 20 C50.77 20.33 51.61 20.66 52.46 21 C53.3 21.33 54.14 21.66 55 22 C56.67 22.67 58.33 23.33 60 24 C60.83 24.33 61.67 24.67 62.52 25.01 C64.11 25.64 65.7 26.29 67.29 26.93 C72.51 29.04 77.78 31.04 83.06 33 C88.08 34.87 93.04 36.79 97.91 39.04 C105 42.29 112.26 45.12 119.52 47.98 C121.67 48.83 123.82 49.69 125.97 50.55 C133.9 53.71 141.85 56.67 149.95 59.37 C180.6 69.74 180.6 69.74 188.72 84.78 C191.04 88.81 194.03 92.32 196.94 95.94 C198.12 97.44 199.29 98.95 200.46 100.46 C201.05 101.21 201.63 101.96 202.23 102.73 C205.16 106.49 208.08 110.24 211 114 C212.17 115.5 213.33 117 214.5 118.5 C221.5 127.5 221.5 127.5 223.25 129.75 C224.42 131.25 225.58 132.75 226.75 134.24 C229.69 138.03 232.63 141.82 235.57 145.61 C241.55 153.32 247.56 161 253.68 168.6 C256.94 172.67 260.17 176.76 263.38 180.88 C267.58 186.26 271.9 191.55 276.25 196.81 C280.93 202.47 285.55 208.16 290 214 C295.35 221.03 300.77 227.98 306.38 234.81 C311.27 240.78 315.96 246.87 320.55 253.07 C324.4 258.24 328.38 263.28 332.43 268.29 C336.2 272.97 339.87 277.72 343.5 282.5 C348.07 288.52 352.73 294.45 357.47 300.33 C361.86 305.78 366.1 311.34 370.33 316.92 C374.21 322.03 378.26 326.96 382.49 331.8 C384 334 384 334 384 338 C382.09 340.08 382.09 340.08 379.5 342.25 C376.17 345.11 372.94 347.98 369.88 351.12 C367.42 353.62 364.92 355.98 362.25 358.25 C358.65 361.34 355.33 364.63 352 368 C348.17 371.87 344.3 375.61 340.15 379.13 C338.37 380.68 336.64 382.26 334.91 383.87 C334.37 384.37 333.83 384.88 333.27 385.4 C332.19 386.41 331.11 387.43 330.04 388.45 C326.22 392 326.22 392 324 392 C322.44 390.09 322.44 390.09 320.56 387.38 C317.4 382.92 314.15 378.59 310.75 374.31 C306.75 369.27 302.85 364.16 299 359 C294.81 353.39 290.55 347.84 286.21 342.35 C282.1 337.15 278.07 331.88 274.06 326.61 C269.4 320.5 264.68 314.44 259.95 308.39 C256.71 304.23 253.52 300.04 250.38 295.81 C246.56 290.68 242.59 285.69 238.58 280.71 C235.64 277.05 232.73 273.38 229.85 269.68 C225.22 263.72 220.43 257.95 215.48 252.25 C211.53 247.68 207.79 242.96 204.08 238.19 C200.49 233.58 196.77 229.12 192.98 224.68 C190.11 221.32 187.29 217.93 184.5 214.5 C180.75 209.9 176.93 205.36 173.09 200.84 C170.17 197.41 167.32 193.94 164.5 190.44 C160.37 185.36 155.99 180.56 151.55 175.76 C145.8 169.54 140.34 163.07 134.83 156.63 C123.67 143.58 123.67 143.58 112.25 130.75 C109.28 127.48 106.46 124.13 103.69 120.69 C99.8 115.87 95.67 111.35 91.44 106.83 C88.34 103.51 85.4 100.11 82.56 96.56 C78.53 91.54 74.21 86.87 69.8 82.19 C65.78 77.9 62.05 73.44 58.38 68.84 C55.54 65.44 52.54 62.22 49.5 59 C44.83 54.04 40.43 48.96 36.18 43.64 C33.87 40.84 31.46 38.17 29 35.5 C24.89 31.03 21.04 26.42 17.23 21.7 C13.63 17.34 9.8 13.19 6 9 C0 2.33 0 2.33 0 0 Z " fill="#FCFCFC" transform="translate(247,300)"/>
<path d="M0 0 C0.66 0 1.32 0 2 0 C3.35 1.51 4.63 3.09 5.88 4.69 C9.47 9.19 13.2 13.48 17.12 17.69 C18.16 18.8 19.19 19.91 20.23 21.02 C20.71 21.53 21.19 22.05 21.69 22.58 C25.48 26.68 29.09 30.93 32.7 35.18 C33.72 36.37 34.73 37.56 35.75 38.75 C36.26 39.35 36.78 39.96 37.31 40.58 C40.69 44.52 44.15 48.38 47.69 52.19 C51.91 56.73 55.86 61.45 59.75 66.29 C62.87 70.05 66.19 73.62 69.5 77.21 C72.87 80.96 76.03 84.86 79.19 88.79 C80.96 91.03 80.96 91.03 83 93 C83.25 95.1 83.25 95.1 83.26 97.77 C83.27 98.79 83.28 99.81 83.29 100.87 C83.29 102.01 83.29 103.15 83.29 104.32 C83.31 106.87 83.33 109.41 83.35 111.96 C83.36 113.36 83.37 114.77 83.38 116.17 C83.43 124 83.5 131.82 83.6 139.65 C83.61 140.51 83.62 141.37 83.63 142.26 C83.85 158.58 84.44 174.89 85.1 191.2 C85.92 211.61 86.5 232.01 86.93 252.43 C87.2 264.94 87.59 277.44 88.2 289.94 C92.66 381.85 92.66 381.85 68.18 409.03 C57.34 420.55 44.87 430.16 31.82 439.01 C26.08 443.06 21.03 447.82 16.13 452.84 C15.31 453.67 14.49 454.51 13.64 455.37 C11.94 457.11 10.24 458.85 8.54 460.59 C7.72 461.41 6.91 462.24 6.07 463.09 C5.34 463.84 4.6 464.59 3.84 465.37 C2 467 2 467 0 467 C0 312.89 0 158.78 0 0 Z " fill="#FCFCFC" transform="translate(314,405)"/>
<path d="M0 0 C0.66 0 1.32 0 2 0 C2 66.33 2 132.66 2 201 C-12.52 201 -27.04 201 -42 201 C-63.3 176.15 -63.3 176.15 -71.93 165.54 C-74.01 162.91 -74.01 162.91 -76.59 160.36 C-79.58 156.75 -79.73 153.2 -79.69 148.64 C-79.71 147.83 -79.72 147.01 -79.74 146.17 C-79.77 143.48 -79.77 140.79 -79.77 138.1 C-79.78 136.22 -79.79 134.35 -79.81 132.47 C-79.83 128.54 -79.83 124.6 -79.82 120.67 C-79.8 115.64 -79.85 110.62 -79.92 105.59 C-79.96 101.72 -79.96 97.84 -79.95 93.96 C-79.96 92.11 -79.97 90.26 -80 88.4 C-80.19 73.98 -80.19 73.98 -77.28 69.15 C-75.29 67.13 -73.35 65.58 -71 64 C-69.76 62.93 -68.53 61.85 -67.31 60.75 C-66.66 60.19 -66 59.62 -65.32 59.04 C-62.38 56.45 -59.5 53.79 -56.62 51.12 C-51.96 46.8 -47.27 42.53 -42.54 38.29 C-39.63 35.67 -36.75 33.02 -33.88 30.38 C-29.96 26.78 -26.01 23.23 -21.99 19.74 C-18.78 16.94 -15.63 14.07 -12.47 11.21 C-9.54 8.58 -6.57 5.99 -3.59 3.41 C-2.36 2.32 -1.17 1.17 0 0 Z " fill="#FCFCFC" transform="translate(854,632)"/>
<path d="M0 0 C3.52 1.48 5.5 3.39 8 6.25 C8.79 7.15 9.58 8.04 10.39 8.97 C11.26 9.98 12.13 10.99 13 12 C13.46 12.53 13.92 13.06 14.39 13.61 C17.43 17.13 20.44 20.66 23.46 24.19 C32.25 34.5 41.11 44.76 50 55 C73.14 81.65 73.14 81.65 81.89 92.45 C84.69 95.83 87.61 99.08 90.57 102.32 C92 104 92 104 92 105 C78.43 105.19 64.86 105.33 51.29 105.41 C44.99 105.46 38.69 105.51 32.39 105.6 C26.31 105.69 20.23 105.74 14.14 105.76 C11.82 105.77 9.5 105.8 7.19 105.85 C3.93 105.9 0.69 105.91 -2.57 105.91 C-3.52 105.94 -4.48 105.97 -5.47 106 C-9.43 105.95 -11.98 105.84 -15.11 103.27 C-16.89 101.26 -18.46 99.21 -20 97 C-20.85 95.92 -21.7 94.84 -22.55 93.76 C-23.32 92.75 -24.09 91.73 -24.88 90.69 C-29.45 84.68 -34.19 78.83 -39 73 C-41.28 70.23 -43.55 67.46 -45.81 64.69 C-46.36 64.02 -46.92 63.35 -47.48 62.66 C-50.56 58.89 -53.38 55.09 -56 51 C-44.46 40.37 -44.46 40.37 -40.06 36.56 C-36.47 33.45 -32.98 30.23 -29.5 27 C-25.37 23.18 -21.22 19.4 -16.97 15.71 C-11.15 10.65 -5.37 5.55 0 0 Z " fill="#FBFBFB" transform="translate(699,728)"/>
<path d="M0 0 C36.96 0 73.92 0 112 0 C112 0.66 112 1.32 112 2 C110.6 3.38 110.6 3.38 108.62 5 C105.25 7.86 102.1 10.85 99 14 C95.44 17.61 91.78 20.99 87.93 24.29 C85.87 26.12 83.93 28.04 82 30 C79.52 32.52 77.01 34.9 74.31 37.19 C70.52 40.44 67.01 43.95 63.5 47.5 C59.51 51.53 55.49 55.39 51.16 59.06 C47.55 62.3 44.19 65.79 40.79 69.23 C37.28 72.76 33.69 76.11 29.89 79.33 C26.85 82.01 24.06 84.93 21.21 87.82 C18.62 90.37 15.89 92.73 13.12 95.09 C9.61 98.25 6.37 101.66 3.1 105.06 C1 107 1 107 -1 107 C-1.02 99.69 -1.04 92.39 -1.05 85.08 C-1.06 81.68 -1.06 78.28 -1.08 74.88 C-1.16 49.9 -0.56 24.99 0 0 Z " fill="#FAFAFA" transform="translate(669,494)"/>
<path d="M0 0 C34.32 0 68.64 0 104 0 C104 29.37 104 58.74 104 89 C99.49 87.2 97.74 86.13 94.38 82.94 C90.92 79.73 87.42 76.65 83.75 73.69 C75.73 67.19 67.94 60.43 60.16 53.66 C58.88 52.54 57.6 51.43 56.31 50.31 C55.68 49.76 55.05 49.22 54.4 48.65 C50.76 45.49 47.07 42.4 43.31 39.38 C38.87 35.78 34.66 31.97 30.48 28.08 C27.27 25.11 23.97 22.3 20.56 19.56 C15.57 15.56 10.89 11.29 6.24 6.9 C3.36 4.13 3.36 4.13 0 2 C0 1.34 0 0.68 0 0 Z " fill="#F8F8F8" transform="translate(753,928)"/>
<path d="M0 0 C5.68 4.26 9.68 9.4 14 15 C15.34 16.72 16.68 18.43 18.03 20.14 C18.97 21.34 19.9 22.53 20.84 23.73 C24.6 28.53 28.48 33.23 32.42 37.89 C34 40 34 40 34 42 C7.93 42 -18.14 42 -45 42 C-38.3 34.18 -38.3 34.18 -35.06 31.5 C-32.43 29.26 -29.92 26.97 -27.5 24.5 C-24.56 21.52 -21.49 18.76 -18.32 16.03 C-14.89 13.03 -11.55 9.92 -8.21 6.82 C-5.58 4.38 -2.92 2.09 0 0 Z " fill="#FAFAFA" transform="translate(630,791)"/>
<path d="M0 0 C2 0 2 0 4.2 2.1 C4.86 2.79 4.86 2.79 5.53 3.49 C8.19 6.22 11.02 8.78 13.81 11.38 C14.43 11.95 15.06 12.53 15.7 13.12 C19.44 16.58 23.22 20 27.08 23.33 C30.27 26.11 33.4 28.96 36.54 31.8 C39.37 34.33 42.23 36.82 45.11 39.3 C47.49 41.44 49.73 43.73 52 46 C34.84 46 17.68 46 0 46 C0 30.82 0 15.64 0 0 Z " fill="#F4F4F5" transform="translate(671,348)"/>
<path d="M0 0 C74.91 0 149.82 0 227 0 C227 0.99 227 1.98 227 3 C152.09 3 77.18 3 0 3 C0 2.01 0 1.02 0 0 Z " fill="#D7D7D8" transform="translate(597,474)"/>
<path d="M0 0 C74.25 0 148.5 0 225 0 C224.67 0.99 224.34 1.98 224 3 C150.08 3 76.16 3 0 3 C0 2.01 0 1.02 0 0 Z " fill="#D6D6D6" transform="translate(667,908)"/>
<path d="M0 0 C0.66 0.33 1.32 0.66 2 1 C1.4 1.58 0.79 2.16 0.17 2.76 C-5.03 7.73 -5.03 7.73 -9.38 13.44 C-11 16 -11 16 -14 18 C-14.73 20.56 -14.73 20.56 -15 23 C-17.97 23.66 -20.94 24.32 -24 25 C-19.18 19.19 -13.99 13.87 -8.62 8.56 C-7.79 7.74 -6.96 6.91 -6.11 6.06 C-4.07 4.04 -2.04 2.02 0 0 Z " fill="#171717" transform="translate(294,948)"/>
<path d="M0 0 C0.66 0.33 1.32 0.66 2 1 C1.3 1.68 0.6 2.35 -0.12 3.05 C-1.03 3.94 -1.94 4.83 -2.88 5.75 C-3.78 6.63 -4.68 7.51 -5.62 8.42 C-8.03 10.75 -8.03 10.75 -8.95 13.14 C-10.54 15.96 -13.13 16.58 -16 18 C-18.11 19.75 -19.99 21.7 -21.88 23.69 C-22.37 24.2 -22.87 24.71 -23.38 25.24 C-24.6 26.48 -25.8 27.74 -27 29 C-27.66 28.67 -28.32 28.34 -29 28 C-16.15 14.98 -16.15 14.98 -9.86 9.63 C-6.4 6.6 -3.21 3.29 0 0 Z " fill="#E2E1E2" transform="translate(978,468)"/>
<path d="M0 0 C1.32 1.32 2.64 2.64 4 4 C3.01 4 2.02 4 1 4 C1.01 4.55 1.01 5.1 1.02 5.67 C1.15 22.13 0.68 38.55 0 55 C-0.33 55 -0.66 55 -1 55 C-1.12 36.63 -0.93 18.35 0 0 Z " fill="#3A3B3A" transform="translate(887,778)"/>
<path d="M0 0 C0.66 0.33 1.32 0.66 2 1 C-8.11 12.74 -8.11 12.74 -13 16 C-13 13 -13 13 -11.81 11.47 C-11.26 10.94 -10.72 10.41 -10.16 9.86 C-9.57 9.29 -8.98 8.71 -8.38 8.12 C-7.76 7.52 -7.14 6.93 -6.5 6.31 C-5.88 5.71 -5.26 5.1 -4.62 4.47 C-3.09 2.98 -1.54 1.49 0 0 Z " fill="#171718" transform="translate(310,933)"/>
<path d="M0 0 C0.66 0.33 1.32 0.66 2 1 C2 1.66 2 2.32 2 3 C0.32 4.66 0.32 4.66 -1.88 6.5 C-3.99 8.29 -6.04 10.04 -8 12 C-8.99 11.67 -9.98 11.34 -11 11 C-7.37 7.37 -3.74 3.74 0 0 Z " fill="#1D1D1E" transform="translate(703,568)"/>
<path d="M0 0 C2.4 2.88 4.47 5.56 6 9 C2.21 7.55 -1.39 5.85 -5 4 C-4.36 3.71 -3.72 3.42 -3.06 3.12 C-0.85 2.17 -0.85 2.17 0 0 Z " fill="#CFCFCF" transform="translate(989,943)"/>
<path d="M0 0 C1.65 1.65 3.3 3.3 5 5 C-2.92 5 -10.84 5 -19 5 C-19 4.67 -19 4.34 -19 4 C-12.73 3.67 -6.46 3.34 0 3 C0 2.01 0 1.02 0 0 Z " fill="#E3E4E2" transform="translate(786,828)"/>
<path d="M0 0 C0.66 0.33 1.32 0.66 2 1 C1.52 1.47 1.04 1.94 0.54 2.43 C-0.09 3.05 -0.72 3.67 -1.38 4.31 C-2.31 5.23 -2.31 5.23 -3.27 6.18 C-5.18 8.09 -5.18 8.09 -7 11 C-7.66 11 -8.32 11 -9 11 C-9 11.66 -9 12.32 -9 13 C-9.99 12.67 -10.98 12.34 -12 12 C-8.04 8.04 -4.08 4.08 0 0 Z " fill="#DCDBDD" transform="translate(604,685)"/>
<path d="M0 0 C0.66 0.33 1.32 0.66 2 1 C1.46 1.53 0.91 2.06 0.36 2.61 C-0.72 3.67 -0.72 3.67 -1.81 4.75 C-2.52 5.45 -3.23 6.14 -3.96 6.86 C-5.82 8.81 -7.43 10.8 -9 13 C-9.99 12.67 -10.98 12.34 -12 12 C-8.04 8.04 -4.08 4.08 0 0 Z " fill="#DBDADC" transform="translate(734,562)"/>
<path d="M0 0 C0.66 0.33 1.32 0.66 2 1 C1.06 1.92 1.06 1.92 0.1 2.86 C-0.72 3.67 -1.53 4.48 -2.38 5.31 C-3.19 6.11 -4 6.91 -4.84 7.74 C-7.13 10 -7.13 10 -9 13 C-9.99 12.67 -10.98 12.34 -12 12 C-8.04 8.04 -4.08 4.08 0 0 Z " fill="#252526" transform="translate(545,717)"/>
<path d="M0 0 C3.85 0.6 6.86 1.77 10.31 3.56 C11.2 4.02 12.08 4.47 12.99 4.94 C13.65 5.29 14.32 5.64 15 6 C11.87 7.04 11.01 6.93 8 6 C8 5.34 8 4.68 8 4 C7.05 3.9 6.1 3.79 5.12 3.69 C2 3 2 3 0 0 Z " fill="#EEEEEE" transform="translate(961,954)"/>
<path d="M0 0 C1.25 2.56 1.25 2.56 2 5 C-1.46 3.75 -4.15 2.32 -7 0 C-3.88 -1.04 -2.93 -1.32 0 0 Z " fill="#232424" transform="translate(1042,992)"/>
<path d="M0 0 C5.61 0 11.22 0 17 0 C16.67 0.66 16.34 1.32 16 2 C14.64 1.95 14.64 1.95 13.26 1.89 C11.49 1.85 11.49 1.85 9.69 1.81 C8.52 1.78 7.34 1.74 6.14 1.71 C3.01 1.71 3.01 1.71 1.08 3.51 C0.72 4 0.37 4.49 0 5 C0 3.35 0 1.7 0 0 Z " fill="#F1F1F1" transform="translate(876,930)"/>
<path d="M0 0 C0.33 0.99 0.66 1.98 1 3 C-1.64 4.98 -4.28 6.96 -7 9 C-7.66 8.67 -8.32 8.34 -9 8 C-6.03 5.36 -3.06 2.72 0 0 Z " fill="#E4E3E4" transform="translate(494,788)"/>
<path d="M0 0 C0.99 0.33 1.98 0.66 3 1 C1.02 3.31 -0.96 5.62 -3 8 C-3.66 7.67 -4.32 7.34 -5 7 C-4.19 5.06 -4.19 5.06 -3 3 C-2.01 2.67 -1.02 2.34 0 2 C0 1.34 0 0.68 0 0 Z " fill="#EAEAEA" transform="translate(947,469)"/>
<path d="M0 0 C3.3 0.99 6.6 1.98 10 3 C8.35 4.32 6.7 5.64 5 7 C3.29 5.38 1.63 3.71 0 2 C0 1.34 0 0.68 0 0 Z " fill="#2A2A2B" transform="translate(195,263)"/>
<path d="M0 0 C0.66 0.33 1.32 0.66 2 1 C-0.64 3.97 -3.28 6.94 -6 10 C-6.66 9.67 -7.32 9.34 -8 9 C-6.9 5.7 -6.05 4.95 -3.44 2.81 C-2.8 2.28 -2.16 1.75 -1.5 1.21 C-0.76 0.61 -0.76 0.61 0 0 Z " fill="#E1E0E1" transform="translate(721,708)"/>
<path d="M0 0 C2.7 0.36 3.74 0.68 5.48 2.85 C5.9 3.58 6.32 4.31 6.75 5.06 C7.39 6.16 7.39 6.16 8.05 7.29 C8.36 7.85 8.68 8.42 9 9 C8.01 9 7.02 9 6 9 C4.39 7.03 4.39 7.03 2.81 4.5 C2.28 3.66 1.75 2.83 1.21 1.97 C0.81 1.32 0.41 0.67 0 0 Z " fill="#E9E9EA" transform="translate(571,531)"/>
<path d="M0 0 C0.66 0.33 1.32 0.66 2 1 C1.52 1.47 1.04 1.94 0.54 2.43 C-0.09 3.05 -0.72 3.67 -1.38 4.31 C-2.31 5.23 -2.31 5.23 -3.27 6.18 C-5.18 8.09 -5.18 8.09 -7 11 C-7.99 10.67 -8.98 10.34 -10 10 C-6.7 6.7 -3.4 3.4 0 0 Z " fill="#D6D5D7" transform="translate(788,511)"/>
<path d="M0 0 C2.64 0.99 5.28 1.98 8 3 C7.34 4.32 6.68 5.64 6 7 C3.96 5.38 1.96 3.71 0 2 C0 1.34 0 0.68 0 0 Z " fill="#BDBDBD" transform="translate(247,300)"/>
<path d="M0 0 C0.93 0.08 1.86 0.16 2.81 0.25 C2.81 0.91 2.81 1.57 2.81 2.25 C-0.16 2.91 -3.13 3.57 -6.19 4.25 C-4.36 1.01 -3.83 0.3 0 0 Z " fill="#1E1E1E" transform="translate(276.1875,968.75)"/>
<path d="M0 0 C0.99 0.33 1.98 0.66 3 1 C1.35 2.98 -0.3 4.96 -2 7 C-2.66 6.01 -3.32 5.02 -4 4 C-2.68 2.68 -1.36 1.36 0 0 Z " fill="#D9D9DA" transform="translate(728,541)"/>
<path d="M0 0 C0.66 0.33 1.32 0.66 2 1 C-0.31 3.64 -2.62 6.28 -5 9 C-5.99 8.67 -6.98 8.34 -8 8 C-5.36 5.36 -2.72 2.72 0 0 Z " fill="#222223" transform="translate(335,910)"/>
<path d="M0 0 C0.66 0.33 1.32 0.66 2 1 C-0.31 3.64 -2.62 6.28 -5 9 C-5.66 8.34 -6.32 7.68 -7 7 C-4.69 4.69 -2.38 2.38 0 0 Z " fill="#1B1B1C" transform="translate(482,775)"/>
<path d="M0 0 C0.99 0.33 1.98 0.66 3 1 C1.35 2.98 -0.3 4.96 -2 7 C-2.66 6.67 -3.32 6.34 -4 6 C-4 5.34 -4 4.68 -4 4 C-3.34 4 -2.68 4 -2 4 C-2 3.34 -2 2.68 -2 2 C-1.34 2 -0.68 2 0 2 C0 1.34 0 0.68 0 0 Z " fill="#ECECEC" transform="translate(878,533)"/>
<path d="M0 0 C0.99 0.33 1.98 0.66 3 1 C1.35 2.65 -0.3 4.3 -2 6 C-2.66 5.34 -3.32 4.68 -4 4 C-2.68 2.68 -1.36 1.36 0 0 Z " fill="#DCDCDC" transform="translate(686,713)"/>
<path d="M0 0 C0.99 0.33 1.98 0.66 3 1 C-0.47 3.97 -0.47 3.97 -4 7 C-4 4 -4 4 -2 1.81 C-1.34 1.21 -0.68 0.62 0 0 Z " fill="#F1F1F1" transform="translate(777,522)"/>
<path d="M0 0 C0.66 0.66 1.32 1.32 2 2 C-0.97 4.48 -0.97 4.48 -4 7 C-4.33 6.01 -4.66 5.02 -5 4 C-4.34 4 -3.68 4 -3 4 C-3 3.34 -3 2.68 -3 2 C-2.01 1.34 -1.02 0.68 0 0 Z " fill="#F0F0F0" transform="translate(979,440)"/>
<path d="M0 0 C-0.66 0 -1.32 0 -2 0 C-2.33 0.66 -2.66 1.32 -3 2 C-5.44 2.75 -5.44 2.75 -8 3 C-8.66 2.34 -9.32 1.68 -10 1 C-3.71 -1.43 -3.71 -1.43 0 0 Z " fill="#B4B4B4" transform="translate(396,936)"/>
</svg>
